<svg width="51" height="51" viewBox="0 0 51 51" fill="none" xmlns="http://www.w3.org/2000/svg">
<path fill-rule="evenodd" clip-rule="evenodd" d="M28.6115 2.99202L31.5886 5.22053C32.4029 5.83001 33.2599 6.14192 34.2754 6.19846L37.9884 6.405C40.2118 6.52864 42.0175 8.04377 42.5253 10.2119L43.3736 13.8327C43.6055 14.823 44.0616 15.6128 44.8032 16.3088L47.5148 18.8538C49.1384 20.3777 49.5477 22.699 48.5432 24.6864L46.8656 28.0052C46.4068 28.9129 46.2484 29.8111 46.3691 30.8209L46.8105 34.5135C47.0747 36.7245 45.8961 38.7658 43.8493 39.6425L40.4307 41.1066C39.4957 41.507 38.7971 42.0932 38.2405 42.9444L36.205 46.0567C34.9863 47.9202 32.7712 48.7264 30.6398 48.0823L27.08 47.0065C26.1065 46.7122 25.1945 46.7122 24.2208 47.0065L20.6611 48.0823C18.5296 48.7264 16.3146 47.9202 15.0958 46.0567L13.0604 42.9444C12.5036 42.0932 11.805 41.507 10.8702 41.1066L7.4514 39.6423C5.40453 38.7657 4.22592 36.7243 4.49017 34.5133L4.93158 30.8207C5.05228 29.8109 4.89388 28.9127 4.4351 28.005L2.75746 24.6862C1.75297 22.699 2.16224 20.3776 3.78588 18.8536L6.4975 16.3086C7.2391 15.6126 7.69506 14.8228 7.92699 13.8325L8.77523 10.2117C9.28304 8.04368 11.0888 6.52854 13.3121 6.40481L17.0251 6.19827C18.0407 6.14182 18.8977 5.82981 19.712 5.22034L22.6891 2.99182C24.4716 1.65764 26.8288 1.65764 28.6115 2.99202ZM23.7511 26.4216L20.5203 23.1907C19.6828 22.3533 18.3245 22.3533 17.4872 23.1907C16.6498 24.0282 16.6498 25.3864 17.4872 26.2238L22.2393 30.9757C23.0767 31.813 24.435 31.8131 25.2723 30.9757C28.1366 28.1114 30.9684 25.2149 33.8195 22.3374C34.6508 21.4984 34.6482 20.1445 33.8102 19.3112C32.9721 18.4777 31.6143 18.48 30.7821 19.3205L23.7511 26.4216ZM25.6502 9.17493C21.24 9.17493 17.2471 10.9626 14.3569 13.8529C11.4666 16.7432 9.67894 20.736 9.67894 25.1462C9.67894 29.5565 11.4666 33.5493 14.3569 36.4396C17.2471 39.3298 21.24 41.1175 25.6502 41.1175C30.0605 41.1175 34.0534 39.3298 36.9436 36.4396C39.8338 33.5493 41.6215 29.5565 41.6215 25.1462C41.6215 20.736 39.8338 16.7431 36.9436 13.8529C34.0534 10.9626 30.0605 9.17493 25.6502 9.17493ZM35.8388 14.9576C33.2314 12.3502 29.6291 10.7374 25.6502 10.7374C21.6713 10.7374 18.0691 12.3502 15.4617 14.9576C12.8542 17.5651 11.2414 21.1673 11.2414 25.1462C11.2414 29.1251 12.8542 32.7274 15.4617 35.3348C18.0691 37.9422 21.6713 39.555 25.6502 39.555C29.6291 39.555 33.2314 37.9422 35.8388 35.3349C38.4462 32.7275 40.0589 29.1252 40.0589 25.1463C40.059 21.1673 38.4462 17.5651 35.8388 14.9576Z" fill="#02FCFE"/>
</svg>
