<svg width="50" height="50" viewBox="0 0 50 50" fill="none" xmlns="http://www.w3.org/2000/svg">
<path fill-rule="evenodd" clip-rule="evenodd" d="M27.9613 2.84651L30.9385 5.07502C31.7527 5.6845 32.6098 5.99641 33.6253 6.05295L37.3383 6.2595C39.5616 6.38313 41.3674 7.89827 41.8752 10.0664L42.7234 13.6872C42.9554 14.6775 43.4114 15.4673 44.153 16.1633L46.8646 18.7083C48.4883 20.2322 48.8975 22.5535 47.8931 24.5408L46.2154 27.8597C45.7566 28.7674 45.5982 29.6656 45.7189 30.6754L46.1603 34.368C46.4246 36.579 45.246 38.6203 43.1991 39.497L39.7806 40.9611C38.8456 41.3615 38.147 41.9477 37.5903 42.7989L35.5549 45.9112C34.3361 47.7747 32.1211 48.5809 29.9896 47.9367L26.4299 46.861C25.4563 46.5667 24.5443 46.5667 23.5707 46.861L20.0109 47.9367C17.8795 48.5809 15.6644 47.7747 14.4457 45.9112L12.4102 42.7989C11.8535 41.9477 11.1549 41.3615 10.22 40.9611L6.80126 39.4968C4.75438 38.6201 3.57577 36.5788 3.84003 34.3678L4.28143 30.6752C4.40214 29.6654 4.24374 28.7672 3.78495 27.8595L2.10731 24.5407C1.10282 22.5534 1.5121 20.2321 3.13573 18.7081L5.84735 16.1631C6.58895 15.4671 7.04491 14.6773 7.27684 13.687L8.12509 10.0662C8.6329 7.89817 10.4387 6.38303 12.662 6.2593L16.375 6.05276C17.3905 5.99631 18.2475 5.6843 19.0618 5.07483L22.039 2.84631C23.8215 1.51213 26.1787 1.51213 27.9613 2.84651ZM23.101 26.2761L19.8701 23.0452C19.0327 22.2078 17.6744 22.2078 16.8371 23.0452C15.9997 23.8826 15.9997 25.2408 16.8371 26.0782L21.5891 30.8302C22.4266 31.6675 23.7849 31.6676 24.6222 30.8302C27.4864 27.9658 30.3183 25.0694 33.1693 22.1919C34.0007 21.3529 33.998 19.999 33.16 19.1657C32.322 18.3322 30.9641 18.3345 30.1319 19.175L23.101 26.2761ZM25.0001 9.02942C20.5898 9.02942 16.597 10.8171 13.7067 13.7073C10.8165 16.5977 9.0288 20.5905 9.0288 25.0007C9.0288 29.411 10.8165 33.4038 13.7067 36.2941C16.597 39.1843 20.5898 40.972 25.0001 40.972C29.4103 40.972 33.4032 39.1843 36.2934 36.2941C39.1837 33.4038 40.9714 29.411 40.9714 25.0007C40.9714 20.5905 39.1837 16.5976 36.2934 13.7073C33.4032 10.8171 29.4103 9.02942 25.0001 9.02942ZM35.1887 14.8121C32.5812 12.2047 28.979 10.5919 25.0001 10.5919C21.0212 10.5919 17.4189 12.2047 14.8115 14.8121C12.2041 17.4196 10.5913 21.0218 10.5913 25.0007C10.5913 28.9796 12.2041 32.5819 14.8115 35.1893C17.4189 37.7967 21.0212 39.4095 25.0001 39.4095C28.979 39.4095 32.5812 37.7967 35.1887 35.1894C37.7961 32.582 39.4088 28.9797 39.4088 25.0008C39.4089 21.0218 37.7961 17.4196 35.1887 14.8121Z" fill="url(#paint0_linear_616_870)"/>
<defs>
<linearGradient id="paint0_linear_616_870" x1="48.4376" y1="25.0008" x2="1.56274" y2="25.0008" gradientUnits="userSpaceOnUse">
<stop stop-color="#02FCFE"/>
<stop offset="0.5" stop-color="#4472FC"/>
<stop offset="1" stop-color="#B143EC"/>
</linearGradient>
</defs>
</svg>
