<svg width="50" height="50" viewBox="0 0 50 50" fill="none" xmlns="http://www.w3.org/2000/svg">
<path d="M21.8456 40.7222C21.8651 40.7515 21.8749 40.7905 21.8749 40.8296L23.1737 47.2847H26.8163L28.1249 40.8198C28.1346 40.7905 28.1444 40.7515 28.1542 40.7124L31.4256 32.8804H18.5741L21.8456 40.7222ZM22.4413 34.5601C22.4413 33.9937 22.9002 33.5347 23.4667 33.5347H26.5917C27.1581 33.5347 27.617 33.9937 27.617 34.5601V38.5737C27.617 39.1401 27.1581 39.5991 26.5917 39.5991H23.4667C22.9002 39.5991 22.4413 39.1401 22.4413 38.5737V34.5601ZM32.4803 21.3276C29.3846 27.0405 34.9022 33.7104 41.0838 31.8159C41.0838 31.8062 41.0838 31.8062 41.0838 31.8062C45.8592 30.439 47.8905 24.2769 44.8045 20.3999V20.3901C41.7186 16.1323 34.8924 16.6597 32.4803 21.3276ZM38.9452 22.646C41.3963 22.7144 41.3866 26.2886 38.9452 26.3472C36.5038 26.2886 36.494 22.7046 38.9452 22.646ZM44.9706 24.7944C44.9706 27.5874 42.9979 30.0581 40.2733 30.6733C39.9413 30.7515 39.5897 30.4878 39.5995 30.1362V27.1479C39.5702 26.8354 39.9315 26.6401 40.0584 26.4155L41.1815 24.4624C41.3084 24.2573 41.328 23.9448 41.5917 23.8472L43.9549 22.7339C44.9999 22.3726 44.9022 24.1792 44.9706 24.7944ZM34.5116 20.7222C36.7967 18.1147 41.1327 18.1343 43.4081 20.7515C43.662 21.0054 43.5643 21.4839 43.2323 21.6206C43.1053 21.6597 40.8983 22.7632 40.8104 22.7046C40.5565 22.6851 40.2733 22.4995 40.0584 22.5288H37.8124C37.5389 22.4995 37.1678 22.7925 36.8651 22.6362L34.6678 21.6011C34.3456 21.4546 34.2577 20.9858 34.5116 20.7222ZM33.9452 22.6948L36.2792 23.7983C36.5526 23.9155 36.5721 24.2378 36.6991 24.4526L37.8221 26.4155C37.9393 26.6206 38.3202 26.8354 38.2909 27.1382V30.1265C38.3006 30.4683 37.9491 30.7417 37.617 30.6636C34.2772 29.9604 32.119 26.2886 33.1737 23.0269C33.2713 22.7144 33.6522 22.5581 33.9452 22.6948ZM48.8768 22.8901V26.5327C48.8768 29.4233 46.5428 31.7671 43.6522 31.7866C47.1483 29.4917 48.4374 24.5405 46.4061 20.8589L47.3924 21.0542C48.2518 21.23 48.8768 22.0015 48.8768 22.8901ZM6.50376 26.5815H20.5565V29.1792C20.5565 29.3745 20.4002 29.5308 20.2049 29.5308H6.84556C6.65025 29.5308 6.494 29.3745 6.494 29.1792V26.5815H6.50376ZM1.1229 26.5815H5.39048V29.1792C5.39048 29.98 6.04478 30.6343 6.84556 30.6343H20.2049C21.0057 30.6343 21.66 29.98 21.66 29.1792V26.5815H30.703C31.162 28.6909 32.451 30.5757 34.2284 31.7866H6.37681C3.49595 31.7866 1.1522 29.4526 1.1229 26.5815ZM1.1229 24.1108H30.5272C30.5077 24.3354 30.4979 24.5601 30.4979 24.7847C30.4979 25.019 30.5077 25.2437 30.5272 25.4683C22.4901 25.4585 9.17954 25.4194 1.1229 25.4683V24.1108ZM1.1229 23.0073C1.07408 22.0894 1.69908 21.2397 2.60728 21.0542L12.5292 19.0425C19.4627 17.6362 26.5038 17.4019 33.4862 18.3687C32.0995 19.5601 31.0741 21.23 30.703 23.0171H1.1229V23.0073ZM34.0819 23.9839L35.5956 24.6968C35.6444 24.8726 36.7674 26.7573 36.8651 26.9722C36.9432 27.1089 37.0506 27.2456 37.1874 27.3823V29.394C35.0584 28.5933 33.6815 26.269 34.0819 23.9839ZM37.1385 21.5327L35.8788 20.9468C37.617 19.5112 40.3026 19.521 42.0311 20.9663L40.7909 21.5522C40.5467 21.4644 40.3026 21.4253 40.0584 21.4253C39.5409 21.4546 37.617 21.3374 37.1385 21.5327ZM40.703 27.3823C41.0838 26.9429 42.0018 25.2632 42.2752 24.7456L43.8084 24.0229C43.8573 24.2866 43.867 24.5405 43.867 24.7944C43.867 26.8452 42.5682 28.6714 40.703 29.394V27.3823ZM26.5135 38.5054H23.5448V34.6479H26.5135V38.5054ZM39.6971 24.4917C39.6776 25.478 38.2127 25.478 38.1932 24.4917C38.2127 23.5151 39.6776 23.5151 39.6971 24.4917ZM49.3651 5.4292C41.5038 4.38428 33.5155 3.84717 25.576 3.82764V4.58936H24.4725V3.82764C16.5135 3.8374 8.47642 4.39404 0.576029 5.4292C0.302592 5.4292 0.0584511 5.22412 0.0291543 4.95068C-0.0196739 4.64795 0.204935 4.37451 0.497904 4.33545C16.7381 2.17725 33.2713 2.17725 49.5116 4.33545C50.2245 4.43311 50.0682 5.51709 49.3651 5.4292ZM20.7811 7.57764C20.6346 7.57764 20.5174 7.46045 20.5174 7.31396V5.94678C20.5174 5.80029 20.6346 5.68311 20.7811 5.68311H29.2772C29.4237 5.68311 29.5409 5.80029 29.5409 5.94678V7.32373C29.5409 7.47021 29.4237 7.5874 29.2772 7.5874H20.7811V7.57764ZM40.1659 38.5347H42.5389C43.8475 38.5347 44.9217 39.5991 44.9217 40.9175V41.6011H37.7831V40.9175C37.7831 39.5991 38.8475 38.5347 40.1659 38.5347ZM48.8768 44.5698V47.2847H33.8084V44.5698C33.8084 43.5444 34.6483 42.7046 35.6737 42.7046H47.0116C48.0467 42.7046 48.8768 43.5444 48.8768 44.5698ZM9.84361 38.5347C11.1522 38.5347 12.2264 39.5991 12.2264 40.9175V41.6011H5.09751V40.9175C5.09751 39.5991 6.17173 38.5347 7.48033 38.5347H9.84361ZM16.201 44.5698V47.2847H1.1229V44.5698C1.1229 43.5444 1.96275 42.7046 2.98814 42.7046H14.326C15.3612 42.7046 16.201 43.5444 16.201 44.5698ZM3.994 14.4722C3.994 15.1948 5.09751 15.1948 5.09751 14.4722C5.09751 13.2222 6.11314 12.2065 7.36314 12.2065C8.08579 12.2065 8.08579 11.103 7.36314 11.103C6.11314 11.103 5.09751 10.0874 5.09751 8.8374C5.09751 8.11475 3.994 8.11475 3.994 8.8374C3.994 10.0874 2.97837 11.103 1.72837 11.103C1.00572 11.103 1.00572 12.2065 1.72837 12.2065C2.97837 12.2065 3.994 13.2222 3.994 14.4722ZM4.54087 10.6831C4.79478 11.064 5.12681 11.396 5.50767 11.6499C5.12681 11.9038 4.79478 12.2358 4.54087 12.6167C4.28697 12.2358 3.95494 11.9038 3.57408 11.6499C3.95494 11.4058 4.28697 11.0737 4.54087 10.6831ZM39.1014 10.9468C39.1014 11.6694 40.2049 11.6694 40.2049 10.9468C40.2049 9.97021 40.9959 9.1792 41.9725 9.1792C42.6952 9.1792 42.6952 8.07568 41.9725 8.07568C40.9959 8.07568 40.2049 7.28467 40.2049 6.30811C40.2049 5.58545 39.1014 5.58545 39.1014 6.30811C39.1014 7.28467 38.3104 8.07568 37.3338 8.07568C36.6112 8.07568 36.6112 9.1792 37.3338 9.1792C38.3104 9.1792 39.1014 9.97021 39.1014 10.9468ZM39.6581 7.99756C39.8338 8.2417 40.0487 8.44678 40.2831 8.62256C40.0389 8.79834 39.8338 9.01318 39.6581 9.24756C39.4823 9.00342 39.2674 8.79834 39.0331 8.62256C39.2674 8.45654 39.4823 8.2417 39.6581 7.99756ZM17.744 36.689C17.0116 36.689 16.4159 36.0933 16.4159 35.3608C16.4159 35.0581 16.1717 34.814 15.869 34.814C15.5663 34.814 15.3221 35.0581 15.3221 35.3608C15.3221 36.0933 14.7264 36.689 13.994 36.689C13.2713 36.6987 13.2713 37.7827 13.994 37.7925C14.7264 37.7925 15.3221 38.3882 15.3221 39.1206C15.3319 39.8433 16.4159 39.8433 16.4256 39.1206C16.4256 38.3882 17.0213 37.7925 17.7538 37.7925C18.4667 37.7827 18.4667 36.7085 17.744 36.689ZM15.8592 37.5776C15.7616 37.4604 15.6444 37.3433 15.5272 37.2456C15.6444 37.1382 15.7616 37.0308 15.8592 36.9038C15.9569 37.0308 16.0741 37.1382 16.201 37.2456C16.0741 37.3433 15.9667 37.4604 15.8592 37.5776Z" fill="#B143EC"/>
</svg>
