<svg width="50" height="51" viewBox="0 0 50 51" fill="none" xmlns="http://www.w3.org/2000/svg">
<g clip-path="url(#clip0_632_574)">
<path d="M49.8278 31.5525C49.2181 29.4145 45.2716 15.5624 44.5565 13.0604C44.0011 11.1167 42.2696 9.81055 40.2479 9.81055H26.4653V13.4289H28.8053C29.6146 13.4289 30.2706 14.0849 30.2706 14.8942C30.2706 15.7035 29.6146 16.3595 28.8053 16.3595H21.1948C20.3856 16.3595 19.7295 15.7035 19.7295 14.8942C19.7295 14.0849 20.3856 13.4289 21.1948 13.4289H23.5348V9.81055H9.74954C7.7264 9.81055 5.99447 11.1178 5.43998 13.0636C5.43998 13.0636 0.792317 29.3786 0.172087 31.553C-0.504411 33.9252 0.87418 36.4088 3.2452 37.0893C5.33252 37.6883 7.36094 38.2059 9.33876 38.6447L20.5735 27.4099C21.1457 26.8377 22.0735 26.8377 22.6458 27.4099C23.2181 27.982 23.2181 28.9099 22.6458 29.4821L12.789 39.339C16.8133 40.0629 20.632 40.4408 24.3122 40.4824L36.4698 28.3248C37.0421 27.7525 37.9698 27.7525 38.5421 28.3248C39.1143 28.897 39.1143 29.8248 38.5421 30.3971L28.5567 40.3824C34.1943 40.0588 40.1839 38.9732 46.754 37.089C49.1257 36.4086 50.5046 33.9249 49.8278 31.5525Z" fill="#02FCFE"/>
</g>
<defs>
<clipPath id="clip0_632_574">
<rect width="50" height="50" fill="white" transform="translate(0 0.146484)"/>
</clipPath>
</defs>
</svg>
