<svg width="51" height="50" viewBox="0 0 51 50" fill="none" xmlns="http://www.w3.org/2000/svg">
<g clip-path="url(#clip0_632_548)">
<path fill-rule="evenodd" clip-rule="evenodd" d="M31.0338 36.8516C30.9313 34.2744 31.3844 30.8955 32.2877 27.8818C33.1276 25.0791 35.0641 20.2393 38.5953 19.3184C38.9947 19.2178 39.484 19.2861 39.8824 19.3906C39.3229 17.6963 38.6315 15.291 38.2008 13.0147C37.359 8.56055 37.7272 6.02051 39.3258 5.24903C40.3824 4.73438 41.9059 4.65039 42.7145 6.10742C42.7174 6.11231 42.7203 6.11719 42.7223 6.12207C45.4029 11.292 49.7154 20.6934 48.4762 25.5674C48.2526 26.4404 47.025 30.9131 44.7428 33.2256C43.941 34.0527 43.1461 37.2373 43.1637 39.3311L31.0338 36.8516Z" fill="#B143EC"/>
<path fill-rule="evenodd" clip-rule="evenodd" d="M44.1232 50.0003C44.0841 50.0003 44.045 49.9964 44.005 49.9886L27.8107 46.678C27.4943 46.6136 27.2892 46.304 27.3536 45.9866L28.9415 38.219C28.9728 38.0667 29.0636 37.9329 29.1935 37.847C29.3224 37.761 29.4806 37.7308 29.6329 37.762L45.8273 41.0725C46.1447 41.137 46.3488 41.4466 46.2843 41.763L44.6964 49.5315C44.6398 49.8089 44.3956 50.0003 44.1232 50.0003Z" fill="#B143EC"/>
<path fill-rule="evenodd" clip-rule="evenodd" d="M8.1367 39.3311C8.15428 37.2363 7.35838 34.0518 6.55369 33.2217C4.27439 30.9131 3.04685 26.4404 2.8242 25.5674C1.58494 20.6924 5.89744 11.292 8.57713 6.12207C8.58006 6.11719 8.58299 6.11231 8.58592 6.10742C9.39451 4.65039 10.9179 4.73438 11.9765 5.24903C13.5732 6.02051 13.9414 8.56055 13.0996 13.0137C12.6689 15.29 11.9775 17.6963 11.4179 19.3906C11.8164 19.2861 12.3037 19.2178 12.7002 19.3184C16.2363 20.2393 18.1719 25.0791 19.0117 27.8818C19.915 30.8955 20.3681 34.2744 20.2666 36.8516L8.1367 39.3311Z" fill="#B143EC"/>
<path fill-rule="evenodd" clip-rule="evenodd" d="M7.17692 50.0003C6.90446 50.0003 6.66032 49.8089 6.60368 49.5315L5.01579 41.764C4.95134 41.4466 5.15544 41.137 5.47282 41.0725L21.6662 37.762C21.8185 37.7308 21.9777 37.761 22.1066 37.847C22.2365 37.9329 22.3273 38.0667 22.3576 38.219L23.9455 45.9866C24.0109 46.304 23.8058 46.6136 23.4894 46.678L7.29509 49.9886C7.25505 49.9964 7.21599 50.0003 7.17692 50.0003Z" fill="#B143EC"/>
<path fill-rule="evenodd" clip-rule="evenodd" d="M25.6494 17.6035C25.5137 17.6035 25.377 17.5557 25.2676 17.4619C20.4658 13.3369 15.5 9.07129 15.5 4.69336C15.5 2.10547 17.9072 0 20.8672 0C23.2578 0 24.5586 0.960938 25.6494 2.5625C26.7393 0.960938 28.041 0 30.4316 0C33.3906 0 35.7988 2.10547 35.7988 4.69336C35.7988 9.07129 30.833 13.3369 26.0312 17.4619C25.9209 17.5557 25.7852 17.6035 25.6494 17.6035ZM25.6494 11.9502C25.3252 11.9502 25.0635 11.6885 25.0635 11.3643V9.3877H23.0869C22.7627 9.3877 22.501 9.125 22.501 8.80176C22.501 8.47852 22.7627 8.21582 23.0869 8.21582H25.0635V6.23828C25.0635 5.91504 25.3252 5.65234 25.6494 5.65234C25.9727 5.65234 26.2354 5.91504 26.2354 6.23828V8.21582H28.2119C28.5352 8.21582 28.7978 8.47852 28.7978 8.80176C28.7978 9.125 28.5361 9.3877 28.2119 9.3877H26.2354V11.3643C26.2354 11.6885 25.9727 11.9502 25.6494 11.9502Z" fill="#B143EC"/>
</g>
<defs>
<clipPath id="clip0_632_548">
<rect width="50" height="50" fill="white" transform="translate(0.650391)"/>
</clipPath>
</defs>
</svg>
