<svg width="51" height="51" viewBox="0 0 51 51" fill="none" xmlns="http://www.w3.org/2000/svg">
<path d="M37.7461 34.3183L35.5414 44.5542C35.2305 45.9933 33.9586 47.0214 32.4867 47.0214H24.218C20.8539 47.0214 19.407 45.7636 17.4883 43.8964H15.1445V31.3964H16.7586C20.4617 28.8761 22.4445 25.2542 23.543 21.6276C23.7258 21.0276 24.2383 20.5667 24.8648 20.5198C27.8773 20.2933 30.1039 23.0667 29.3398 25.8855C28.8148 27.823 28.3227 29.5573 27.3445 31.3948H35.3852C36.9242 31.3964 38.0695 32.8151 37.7461 34.3183Z" fill="#02FCFE"/>
<path d="M25.7206 4.1998L27.605 8.01855C27.6738 8.15762 27.805 8.25293 27.9581 8.2748L32.1722 8.8873C32.5566 8.94355 32.7097 9.41543 32.4316 9.6873L29.3816 12.6607C29.2706 12.7686 29.2206 12.9232 29.2472 13.0764L29.9675 17.2732C30.0331 17.6561 29.6316 17.9482 29.2878 17.767L25.5175 15.7857C25.3816 15.7139 25.2175 15.7139 25.0816 15.7857L21.3113 17.767C20.9675 17.9482 20.566 17.6561 20.6316 17.2732L21.3519 13.0764C21.3784 12.9248 21.3269 12.7686 21.2175 12.6607L18.1675 9.6873C17.8894 9.41543 18.0425 8.94355 18.4269 8.8873L22.641 8.2748C22.7941 8.25293 22.9253 8.15605 22.9941 8.01855L24.8785 4.1998C25.0519 3.85137 25.5488 3.85137 25.7206 4.1998Z" fill="#02FCFE"/>
<path d="M39.7835 7.9373L41.6679 11.7561C41.7367 11.8951 41.8679 11.9904 42.021 12.0123L46.2351 12.6248C46.6195 12.6811 46.7726 13.1529 46.4945 13.4248L43.446 16.3967C43.3351 16.5045 43.2851 16.6592 43.3117 16.8123L44.032 21.0092C44.0976 21.392 43.696 21.6842 43.3523 21.5029L39.582 19.5217C39.446 19.4498 39.282 19.4498 39.146 19.5217L35.3757 21.5029C35.032 21.6842 34.6304 21.392 34.696 21.0092L35.4163 16.8123C35.4429 16.6607 35.3913 16.5045 35.282 16.3967L32.232 13.4232C31.9538 13.1514 32.107 12.6795 32.4913 12.6232L36.7054 12.0107C36.8585 11.9889 36.9898 11.892 37.0585 11.7545L38.9429 7.93574C39.1148 7.58887 39.6117 7.58887 39.7835 7.9373Z" fill="#02FCFE"/>
<path d="M11.6581 7.93711L13.5425 11.7559C13.6113 11.8949 13.7425 11.9902 13.8956 12.0121L18.1097 12.6246C18.4941 12.6809 18.6472 13.1527 18.3691 13.4246L15.3206 16.3965C15.2097 16.5043 15.1597 16.659 15.1863 16.8121L15.9066 21.009C15.9722 21.3918 15.5706 21.684 15.2269 21.5027L11.4566 19.5215C11.3206 19.4496 11.1566 19.4496 11.0206 19.5215L7.25033 21.5027C6.90658 21.684 6.50501 21.3918 6.57064 21.009L7.29095 16.8121C7.31751 16.6605 7.26595 16.5043 7.15658 16.3965L4.10501 13.4246C3.82689 13.1527 3.98001 12.6809 4.36439 12.6246L8.57845 12.0121C8.73314 11.9902 8.86439 11.8934 8.93314 11.7559L10.8175 7.93711C10.9894 7.58867 11.4863 7.58867 11.6581 7.93711Z" fill="#02FCFE"/>
<path d="M7.33203 29.834H12.0195C12.4508 29.834 12.8008 30.184 12.8008 30.6152V44.6777C12.8008 45.109 12.4508 45.459 12.0195 45.459H7.33203C6.90078 45.459 6.55078 45.109 6.55078 44.6777V30.6152C6.55078 30.184 6.90078 29.834 7.33203 29.834Z" fill="#02FCFE"/>
</svg>
