<svg width="51" height="50" viewBox="0 0 51 50" fill="none" xmlns="http://www.w3.org/2000/svg">
<g clip-path="url(#clip0_632_563)">
<path d="M43.405 31.1253C42.1966 31.8753 41.0508 32.4587 40.0299 32.8753C39.3216 33.1878 38.5508 33.3337 37.8008 33.3337C37.0508 33.3337 36.28 33.1878 35.5716 32.8753C33.7591 32.1253 31.5508 30.8753 29.405 29.167H9.50912L12.5924 22.0837C12.9258 21.3337 13.6758 20.8337 14.4883 20.8337H22.6966C22.1133 19.542 21.6549 18.1462 21.4049 16.667H14.4883C12.0091 16.667 9.75912 18.1462 8.75912 20.417L4.63411 29.8962C4.61328 29.9378 4.63411 29.9795 4.61328 30.042C2.07161 31.3337 0.300781 33.9378 0.300781 36.9795V44.792C0.300781 47.667 2.63411 50.0003 5.50912 50.0003C8.38412 50.0003 10.7174 47.667 10.7174 44.792V43.7503H35.7174V44.792C35.7174 47.667 38.0508 50.0003 40.9258 50.0003C43.8008 50.0003 46.1341 47.667 46.1341 44.792V36.9795C46.1341 34.6253 45.0716 32.5212 43.405 31.1253ZM12.8008 39.5837H8.63412C7.48828 39.5837 6.55078 38.6462 6.55078 37.5003C6.55078 36.3545 7.48828 35.417 8.63412 35.417H12.8008C13.9466 35.417 14.8841 36.3545 14.8841 37.5003C14.8841 38.6462 13.9466 39.5837 12.8008 39.5837ZM37.8008 39.5837H33.6341C32.4883 39.5837 31.5508 38.6462 31.5508 37.5003C31.5508 36.3545 32.4883 35.417 33.6341 35.417H37.8008C38.9466 35.417 39.8841 36.3545 39.8841 37.5003C39.8841 38.6462 38.9466 39.5837 37.8008 39.5837Z" fill="#B143EC"/>
<path d="M49.2404 3.80423L38.3029 0.0833984C37.9779 -0.0291016 37.6237 -0.0291016 37.2987 0.0833984L26.3612 3.80423C25.7258 4.01882 25.3008 4.61465 25.3008 5.2834V13.6542C25.3008 23.8709 36.7049 28.8376 37.1904 29.0438C37.582 29.2084 38.0195 29.2084 38.4112 29.0438C38.8966 28.8376 50.3008 23.8709 50.3008 13.6542V5.2834C50.3008 4.61465 49.8758 4.01882 49.2404 3.80423ZM44.6466 11.7042L38.9174 18.9959C38.1883 19.9271 36.8216 20.0626 35.9258 19.2917L32.2799 16.1667C31.4049 15.4188 31.3029 14.1021 32.0549 13.2292C32.8029 12.3563 34.1195 12.2563 34.9904 13.0042L36.9862 14.7147L41.3716 9.1334C42.082 8.22923 43.3904 8.06882 44.2966 8.7834C45.2008 9.48965 45.3591 10.8001 44.6466 11.7042Z" fill="#B143EC"/>
</g>
<defs>
<clipPath id="clip0_632_563">
<rect width="50" height="50" fill="white" transform="translate(0.300781)"/>
</clipPath>
</defs>
</svg>
