<svg width="24" height="24" viewBox="0 0 24 24" fill="none" xmlns="http://www.w3.org/2000/svg">
<path fill-rule="evenodd" clip-rule="evenodd" d="M11.2183 0.214335C11.2561 0.0875203 11.3729 0 11.5055 0C11.6381 0 11.755 0.0875203 11.7927 0.214335C11.7927 0.214335 12.3183 1.97619 12.8817 3.86592C13.7794 6.87659 16.1345 9.23167 19.1451 10.1294C21.0348 10.6927 22.7967 11.2183 22.7967 11.2183C22.9235 11.2561 23.011 11.3729 23.011 11.5055C23.011 11.6381 22.9235 11.755 22.7967 11.7927C22.7967 11.7927 21.0348 12.3183 19.1451 12.8817C16.1345 13.7794 13.7794 16.1345 12.8817 19.1451C12.3183 21.0348 11.7927 22.7967 11.7927 22.7967C11.755 22.9235 11.6381 23.011 11.5055 23.011C11.3729 23.011 11.2561 22.9235 11.2183 22.7967C11.2183 22.7967 10.6927 21.0348 10.1294 19.1451C9.23167 16.1345 6.87657 13.7794 3.86591 12.8817C1.97619 12.3183 0.214335 11.7927 0.214335 11.7927C0.0875124 11.755 0 11.6381 0 11.5055C0 11.3729 0.0875124 11.2561 0.214335 11.2183C0.214335 11.2183 1.97619 10.6927 3.86591 10.1294C6.87657 9.23167 9.23167 6.87659 10.1294 3.86592C10.6927 1.97619 11.2183 0.214335 11.2183 0.214335Z" fill="white"/>
</svg>
